<svg width="197" height="197" viewBox="0 0 197 197" fill="none" xmlns="http://www.w3.org/2000/svg">
<g opacity="0.1">
<path d="M30.2952 51.6475C41.8115 39.1626 59.2378 32.834 82.0816 32.834H90.2899V55.9733L83.6904 57.2948C72.445 59.5439 64.6224 63.9682 60.4362 70.461C58.2519 73.9588 57.0131 77.9638 56.8409 82.084H82.0816C84.2585 82.084 86.3464 82.9488 87.8857 84.4881C89.4251 86.0275 90.2899 88.1153 90.2899 90.2923V147.751C90.2899 156.804 82.927 164.167 73.8732 164.167H24.6232C22.4462 164.167 20.3584 163.303 18.8191 161.763C17.2797 160.224 16.4149 158.136 16.4149 155.959V114.917L16.4395 90.9572C16.3656 90.0461 14.8061 68.4581 30.2952 51.6475ZM164.165 164.167H114.915C112.738 164.167 110.65 163.303 109.111 161.763C107.571 160.224 106.707 158.136 106.707 155.959V114.917L106.731 90.9572C106.657 90.0461 105.098 68.4581 120.587 51.6475C132.103 39.1626 149.529 32.834 172.373 32.834H180.582V55.9733L173.982 57.2948C162.737 59.5439 154.914 63.9682 150.728 70.461C148.544 73.9588 147.305 77.9638 147.133 82.084H172.373C174.55 82.084 176.638 82.9488 178.177 84.4881C179.717 86.0275 180.582 88.1153 180.582 90.2923V147.751C180.582 156.804 173.219 164.167 164.165 164.167Z" fill="#F24C4C"/>
</g>
</svg>
