<svg width="26" height="20" viewBox="0 0 26 20" fill="none" xmlns="http://www.w3.org/2000/svg">
<path opacity="0.15" d="M2.20578 17.135C4.02911 19.0363 6.78814 20 10.4049 20H11.7045V16.4763L10.6596 16.275C8.87918 15.9325 7.64067 15.2588 6.97788 14.27C6.63205 13.7373 6.43591 13.1274 6.40866 12.5H10.4049C10.7496 12.5 11.0801 12.3683 11.3239 12.1339C11.5676 11.8995 11.7045 11.5815 11.7045 11.25V2.5C11.7045 1.12125 10.5388 0 9.10531 0H1.30776C0.96309 0 0.632534 0.131695 0.388813 0.366116C0.145092 0.600536 0.00817161 0.91848 0.00817161 1.25V7.5L0.0120704 11.1487C0.00037409 11.2875 -0.246548 14.575 2.20578 17.135ZM23.4008 0H15.6033C15.2586 0 14.928 0.131695 14.6843 0.366116C14.4406 0.600536 14.3037 0.91848 14.3037 1.25V7.5L14.3076 11.1487C14.2959 11.2875 14.049 14.575 16.5013 17.135C18.3246 19.0363 21.0836 20 24.7004 20H26V16.4763L24.9551 16.275C23.1747 15.9325 21.9362 15.2588 21.2734 14.27C20.9276 13.7373 20.7314 13.1274 20.7042 12.5H24.7004C25.0451 12.5 25.3756 12.3683 25.6194 12.1339C25.8631 11.8995 26 11.5815 26 11.25V2.5C26 1.12125 24.8343 0 23.4008 0Z" fill="#F24C4C"/>
</svg>
