<svg width="26" height="20" viewBox="0 0 26 20" fill="none" xmlns="http://www.w3.org/2000/svg">
<path opacity="0.15" d="M23.7942 17.135C21.9709 19.0363 19.2119 20 15.5951 20H14.2955V16.4763L15.3404 16.275C17.1208 15.9325 18.3593 15.2588 19.0221 14.27C19.368 13.7373 19.5641 13.1274 19.5913 12.5H15.5951C15.2504 12.5 14.9199 12.3683 14.6761 12.1339C14.4324 11.8995 14.2955 11.5815 14.2955 11.25V2.5C14.2955 1.12125 15.4612 0 16.8947 0H24.6922C25.0369 0 25.3675 0.131695 25.6112 0.366116C25.8549 0.600536 25.9918 0.91848 25.9918 1.25V7.5L25.9879 11.1487C25.9996 11.2875 26.2465 14.575 23.7942 17.135ZM2.59918 0H10.3967C10.7414 0 11.072 0.131695 11.3157 0.366116C11.5594 0.600536 11.6963 0.91848 11.6963 1.25V7.5L11.6924 11.1487C11.7041 11.2875 11.951 14.575 9.49871 17.135C7.67539 19.0363 4.91635 20 1.29959 20H-1.90735e-06V16.4763L1.04487 16.275C2.82531 15.9325 4.06382 15.2588 4.72661 14.27C5.07244 13.7373 5.26858 13.1274 5.29584 12.5H1.29959C0.954918 12.5 0.624361 12.3683 0.38064 12.1339C0.136919 11.8995 -1.90735e-06 11.5815 -1.90735e-06 11.25V2.5C-1.90735e-06 1.12125 1.16573 0 2.59918 0Z" fill="#F24C4C"/>
</svg>
